<?xml version="1.0" encoding="UTF-8" standalone="no"?>
<svg width="414px" height="286px" viewBox="0 0 414 286" version="1.1" xmlns="http://www.w3.org/2000/svg" xmlns:xlink="http://www.w3.org/1999/xlink" xmlns:sketch="http://www.bohemiancoding.com/sketch/ns">
    <!-- Generator: Sketch 3.2.2 (9983) - http://www.bohemiancoding.com/sketch -->
    <title>Group</title>
    <desc>Created with Sketch.</desc>
    <defs></defs>
    <g id="Page-1" stroke="none" stroke-width="1" fill="none" fill-rule="evenodd" sketch:type="MSPage">
        <g id="Group" sketch:type="MSLayerGroup">
            <path d="M83.157,143 L41.878,214.5 L83.157,286 L124.436,214.5 L83.157,143 Z" id="Shape" fill="#303F9F" sketch:type="MSShapeGroup"></path>
            <path d="M330.842,0 L289.561,71.5 L330.842,143 L372.121,71.5 L330.842,0 Z" id="Shape" fill="#3F51B5" sketch:type="MSShapeGroup"></path>
            <path d="M372.121,71.5 L248.278,286 L330.842,286 L413.4,143 L372.121,71.5 Z" id="Shape" fill="#7986CB" sketch:type="MSShapeGroup"></path>
            <path d="M248.278,0 L83.157,286 L165.721,286 L330.842,0 L248.278,0 Z" id="Shape" fill="#FF4081" sketch:type="MSShapeGroup"></path>
            <path d="M83.157,0 L0.596,143 L41.878,214.5 L165.721,0 L83.157,0 Z" id="Shape" fill="#536DFE" sketch:type="MSShapeGroup"></path>
            <path d="M248.278,0 L289.561,71.5 L330.842,0 L248.278,0 Z" id="Shape" fill-opacity="0.2" fill="#FFFFFF" sketch:type="MSShapeGroup"></path>
            <path d="M207,71.5 L248.278,0 L289.561,71.5 L207,71.5 Z" id="Shape" fill-opacity="0.1" fill="#FFFFFF" sketch:type="MSShapeGroup"></path>
            <path d="M207,71.5 L248.278,143 L289.561,71.5 L207,71.5 Z" id="Shape" fill-opacity="0" fill="#FFFFFF" sketch:type="MSShapeGroup"></path>
            <path d="M165.721,143 L207,71.5 L248.278,143 L165.721,143 Z" id="Shape" fill-opacity="0.1" fill="#000000" sketch:type="MSShapeGroup"></path>
            <path d="M165.721,143 L207,214.5 L248.278,143 L165.721,143 Z" id="Shape" fill-opacity="0.2" fill="#000000" sketch:type="MSShapeGroup"></path>
            <path d="M124.438,214.5 L165.721,143 L207,214.5 L124.438,214.5 Z" id="Shape" fill-opacity="0.3" fill="#000000" sketch:type="MSShapeGroup"></path>
            <path d="M124.438,214.5 L165.721,286 L207,214.5 L124.438,214.5 Z" id="Shape" fill-opacity="0.4" fill="#000000" sketch:type="MSShapeGroup"></path>
            <path d="M83.157,286 L124.438,214.5 L165.721,286 L83.157,286 Z" id="Shape" fill-opacity="0.5" fill="#000000" sketch:type="MSShapeGroup"></path>
            <path d="M83.157,0 L124.438,71.5 L165.721,0 L83.157,0 Z" id="Shape" fill-opacity="0.2" fill="#FFFFFF" sketch:type="MSShapeGroup"></path>
            <path d="M41.878,71.5 L83.157,0 L124.438,71.5 L41.878,71.5 Z" id="Shape" fill-opacity="0.1" fill="#FFFFFF" sketch:type="MSShapeGroup"></path>
            <path d="M41.878,71.5 L83.157,143 L124.438,71.5 L41.878,71.5 Z" id="Shape" fill-opacity="0" fill="#FFFFFF" sketch:type="MSShapeGroup"></path>
            <path d="M0.598,143 L41.878,71.5 L83.157,143 L0.598,143 Z" id="Shape" fill-opacity="0.1" fill="#000000" sketch:type="MSShapeGroup"></path>
            <path d="M0.598,143 L41.878,214.5 L83.157,143 L0.598,143 Z" id="Shape" fill-opacity="0.2" fill="#000000" sketch:type="MSShapeGroup"></path>
            <path d="M124.438,214.5 L83.157,143 L41.878,214.5 L124.438,214.5 Z" id="Shape" fill-opacity="0" fill="#FFFFFF" sketch:type="MSShapeGroup"></path>
            <path d="M124.438,214.5 L83.157,286 L41.878,214.5 L124.438,214.5 Z" id="Shape" fill-opacity="0.2" fill="#000000" sketch:type="MSShapeGroup"></path>
            <path d="M372.121,71.5 L330.842,0 L289.561,71.5 L372.121,71.5 Z" id="Shape" fill-opacity="0.2" fill="#000000" sketch:type="MSShapeGroup"></path>
            <path d="M372.121,71.5 L330.842,143 L289.561,71.5 L372.121,71.5 Z" id="Shape" fill-opacity="0" fill="#FFFFFF" sketch:type="MSShapeGroup"></path>
            <g transform="translate(248.000000, 71.000000)" id="Shape" sketch:type="MSShapeGroup">
                <path d="M82.842,72 L124.121,0.5 L165.4,72 L82.842,72 Z" fill-opacity="0.2" fill="#FFFFFF"></path>
                <path d="M82.842,72 L124.121,143.5 L165.4,72 L82.842,72 Z" fill-opacity="0.1" fill="#FFFFFF"></path>
                <path d="M41.561,143.5 L82.842,72 L124.121,143.5 L41.561,143.5 Z" fill-opacity="0" fill="#FFFFFF"></path>
                <path d="M41.561,143.5 L82.842,215 L124.121,143.5 L41.561,143.5 Z" fill-opacity="0.1" fill="#000000"></path>
                <path d="M0.278,215 L41.561,143.5 L82.842,215 L0.278,215 Z" fill-opacity="0.2" fill="#000000"></path>
            </g>
        </g>
    </g>
</svg>